<svg xmlns="http://www.w3.org/2000/svg" width="32" height="32" fill="none">
  <path fill="#fceee6" d="M0 0h32v32H0z"/>
  <path fill="#010101" d="M24.4197 6.0166c.3398-.0176.7067-.0364 1.0137.0303.1726.0375.287.0998.3857.247.0636.3378.1198.672.1328 1.0157.0279.7284.0209 1.462.0137 2.1943-.0032.3321-.0058.6642-.0058.9951l-.001 6.3086c.0002.2071.0071.5558.0146.9805.0264 1.4866.0692 3.9042-.0683 4.4365-.0986.3816-.2996.557-.6397.752-.3037.0375-.6206.045-.9345.0517-.1644.0036-.3285.0068-.4893.0147-1.5141.0748-3.1132.2253-4.5039.8506-.3723.1674-.7461.3642-1.0733.6064-.1676.1241-.355.2966-.5546.4805-.4982.4588-1.0742.9891-1.6172 1.0185-.6257.0334-1.2192-.4872-1.7666-.9678-.2606-.2286-.5108-.4483-.7491-.5947-.5777-.3548-1.231-.6276-1.8789-.834-1.0687-.34-2.201-.5142-3.3222-.5791-.1692-.0099-.3434-.0093-.5186-.0088-.3254.0011-.655.0015-.9619-.0644-.2674-.0578-.4396-.1901-.6406-.3633-.147-.3401-.1929-.7604-.211-1.1269-.0324-.6556-.024-1.3187-.0156-1.9795.0038-.2934.0076-.5864.0078-.878l.004-5.58-.005-4.2217c0-.1843-.0072-.3847-.0156-.5918-.0225-.561-.0473-1.1721.0781-1.6504.069-.2628.225-.3792.4512-.5195 2.488-.157 5.2056.346 7.3916 1.5293.7262.393 1.3809.8742 2.042 1.3603.3717-.2696.7461-.5394 1.1289-.794 2.058-1.368 4.5089-2.0442 6.9912-2.1044.1012-.0025.2079-.008.3174-.0137m-.2861 1.8955c-.3014.0024-.6206-.016-.919.0225-2.0419.1796-4.6611.906-6.0478 2.4883a4.6 4.6 0 0 0-.1709.208l-.0029 12.4248c.2267-.1604.4513-.3259.6816-.4815 1.9078-1.1087 4.2945-1.2991 6.4688-1.4512.0001-4.401.0602-8.8107-.0098-13.2109m-16.2725.003c-.0468 1.8381-.0362 3.6832-.0263 5.5253.004.7555.0076 1.5114.0078 2.2657 0 .554-.0074 1.1118-.0147 1.6709v.0048c-.016 1.2375-.032 2.4817.0313 3.7051 2.5126.2105 5.0359.452 7.1289 1.9463a710 710 0 0 1 .0703-12.3691c-1.6452-1.6899-4.2197-2.688-6.5938-2.753a11.5 11.5 0 0 0-.6035.004"/>
  <path fill="#010101" d="m24.4197 6.0166.0079.1525zm1.0137.0303.0324-.1493zm.3857.247.1501-.0282-.0058-.0308-.0174-.026zm.1328 1.0157-.1526.0058zm.0137 2.1943.1527.0015zm-.0058.9951h.1527zm-.001 6.3086h-.1527v.0002zm.0146.9805.1527-.0027zm-.0683 4.4365-.1479-.0382zm-.6397.752.0187.1515.0306-.0037.0267-.0153zm-.9345.0517-.0033-.1527zm-.4893.0147-.0075-.1526zm-4.5039.8506.0626.1392zm-1.0733.6064.0909.1228v-.0001zm-.5546.4805-.1035-.1124zm-1.6172 1.0185.0081.1525h.0001zm-1.7666-.9678.1007-.1147zm-.7491-.5947-.0799.1302zm-1.8789-.834.0464-.1455h-.0001zm-3.3222-.5791-.009.1525h.0001zm-.5186-.0088-.0005-.1527zm-.9619-.0644-.0323.1493h.0002zm-.6406-.3633-.1402.0606.014.0322.0265.0229zm-.211-1.1269.1526-.0076zm-.0156-1.9795-.1527-.002zm.0078-.878-.1527-.0001zm.004-5.58.1527.0001v-.0003zm-.005-4.2217h-.1527v.0002zm-.0156-.5918-.1526.0061zm.0781-1.6504-.1477-.0388zm.4512-.5195-.0096-.1525-.0383.0025-.0326.0202zm7.3916 1.5293-.0727.1343zm2.042 1.3603-.0905.123.0899.0661.0903-.0655zm1.1289-.794.0846.1273zm6.9912-2.1044.0037.1526h.0001zm.0313 1.8818.1527-.0024-.0024-.1515-.1515.0012zm-.919.0225.0134.1522.0062-.0008zm-6.0478 2.4883-.1149-.1007-.0004.0005zm-.1709.208-.1209-.0934-.0318.0412v.0521zm-.0029 12.4248-.1528-.0001v.2952l.2409-.1704zm.6816-.4815-.0769-.1323-.0086.0058zm6.4688-1.4512.0106.1524.1421-.0099v-.1425zM7.8611 7.915l-.0048-.1526-.1442.0046-.0037.1441zm-.0263 5.5254-.1528.0008v.0001zm.0078 2.2657h-.1528zm-.0147 1.6709-.1527-.002v.002zm0 .0048.1528.002v-.002zm.0313 3.7051-.1526.0079.007.1332.1328.0111zm7.1289 1.9463-.0888.1243.2424.173-.0009-.2978zm.0703-12.3691.1527.0022.0009-.0634-.0442-.0454zm-6.5938-2.753.0042-.1526h-.001zm15.9551-1.8945.0079.1525c.3453-.0178.6903-.0345.9734.027l.0324-.1492.0324-.1493c-.3308-.0718-.7196-.0508-1.054-.0335zm1.0137.0303-.0324.1492c.0764.0166.13.0366.1726.063.0414.0256.0796.0616.1187.1199l.1268-.085.1269-.0851c-.0597-.089-.128-.1578-.2117-.2095-.0824-.051-.1723-.0809-.2685-.1018zm.3857.247-.1501.0283c.0634.3367.1177.6616.1303.9932l.1526-.0058.1527-.0058c-.0136-.3557-.0716-.6994-.1354-1.0381zm.1328 1.0157-.1526.0058c.0277.7241.0208 1.4542.0136 2.187l.1527.0015.1527.0015c.0072-.7317.0143-1.469-.0137-2.2017zm.0137 2.1943-.1527-.0015c-.0033.3323-.0059.665-.0059.9966h.3055c0-.3301.0026-.6616.0058-.9936zm-.0058.9951h-.1528l-.0009 6.3086h.3054l.001-6.3086zm-.001 6.3086-.1527.0002c.0002.2088.0071.5594.0146.983l.1527-.0027.1527-.0027c-.0076-.4258-.0144-.7725-.0146-.978zm.0146.9805-.1527.0027c.0132.7436.0305 1.718.0273 2.5728-.0016.4275-.0083.8237-.0231 1.1453-.015.3269-.0379.5622-.0677.6775l.1479.0382.1478.0382c.039-.1508.0623-.4174.0772-.7399.015-.3278.0218-.7289.0234-1.1581.0032-.8587-.0142-1.8365-.0274-2.5794zm-.0683 4.4365-.1479-.0382c-.0439.1701-.1082.2863-.1946.3816-.0888.098-.2074.1811-.3731.2761l.0759.1325.076.1325c.1743-.1.3262-.2021.4475-.3359.1238-.1366.2094-.2988.264-.5104zm-.6397.752-.0187-.1516c-.2948.0364-.604.0439-.9191.0506l.0033.1527.0032.1527c.3128-.0067.6374-.0142.95-.0529zm-.9345.0517-.0033-.1527c-.1637.0036-.3301.0068-.4935.0148l.0075.1526.0075.1525c.1582-.0078.32-.0109.485-.0145zm-.4893.0147-.0075-.1526c-1.515.0749-3.1398.2257-4.559.8639l.0626.1393.0626.1392c1.3622-.6124 2.9356-.7625 4.4488-.8373zm-4.5039.8506-.0626-.1393c-.3775.1697-.7622.3717-1.1015.623l.0908.1227.0909.1227c.315-.2332.6779-.4248 1.045-.5899zm-1.0733.6064-.0908-.1228c-.1757.1301-.3696.3089-.5673.4909l.1035.1124.1034.1123c.2017-.1857.3824-.3518.5421-.47zm-.5546.4805-.1035-.1124c-.2506.2309-.5118.471-.7764.6579-.2668.1884-.5176.3082-.7456.3205l.0083.1525.0082.1525c.315-.0171.6237-.1772.9053-.376.2837-.2003.5596-.4547.8071-.6827zm-1.6172 1.0185-.0082-.1525c-.2676.0143-.5402-.0895-.823-.2678-.2829-.1785-.559-.4202-.8347-.6622l-.1007.1147-.1008.1148c.2717.2385.5662.4974.8733.691.3071.1938.6441.3336 1.0022.3145zm-1.7666-.9678.1007-.1147c-.2575-.2261-.5182-.4556-.7698-.6101l-.08.1301-.0799.1302c.2249.1381.4646.348.7282.5793zm-.7491-.5947.08-.1301c-.5911-.3631-1.2565-.6405-1.9125-.8494l-.0464.1455-.0463.1456c.6398.2037 1.2809.4719 1.8453.8186zm-1.8789-.834.0463-.1455c-1.0837-.3448-2.2291-.5206-3.3597-.586l-.0088.1524-.0089.1525c1.1119.0643 2.231.2369 3.2848.5722zm-3.3222-.5791.0089-.1524c-.1747-.0102-.3537-.0096-.528-.0091l.0005.1527.0005.1528c.176-.0006.3455-.0011.5091.0085zm-.5186-.0088-.0005-.1527c-.3284.0011-.6413.0008-.9293-.061l-.032.1493-.0322.1493c.3258.07.6722.0689.9945.0679zm-.9619-.0644.0323-.1493c-.2279-.0492-.3757-.1594-.5732-.3297l-.0997.1157-.0997.1157c.2045.1762.4012.3305.708.3969zm-.6406-.3633.1402-.0606c-.1355-.3132-.1806-.71-.1986-1.0739l-.1526.0076-.1525.0075c.0182.3692.0646.8131.2233 1.18zm-.211-1.1269.1526-.0076c-.0321-.65-.024-1.3084-.0155-1.97l-.1527-.0019-.1527-.002c-.0084.66-.0169 1.3279.0158 1.989zm-.0156-1.9795.1527.0019c.0038-.2931.0077-.5871.0079-.8798l-.1528-.0001-.1527-.0001c-.0002.2905-.004.5826-.0078.8761zm.0078-.878.1528.0001.0039-5.58-.1528-.0001-.1527-.0001-.0039 5.58zm.004-5.58.1527-.0002-.005-4.2217-.1526.0002-.1528.0002.005 4.2216zm-.005-4.2217.1528-.0001c-.0001-.1877-.0074-.3908-.0158-.5979l-.1526.0062-.1526.0061c.0084.2072.0154.4048.0155.5858zm-.0156-.5918.1526-.0061c-.0227-.5682-.0452-1.154.0733-1.6055l-.1477-.0388-.1478-.0388c-.1325.505-.1052 1.1416-.083 1.6953zm.0781-1.6504.1478.0388c.0531-.2026.1638-.292.384-.4286l-.0806-.1297-.0805-.1298c-.2322.1441-.4336.2874-.5184.6105zm.4512-.5195.0096.1524c2.4634-.1554 5.1517.3434 7.3093 1.5112l.0727-.1343.0727-.1343C11.7984 6.2354 9.0516 5.728 6.539 5.8866zm7.3916 1.5293-.0727.1343c.7154.3871 1.3618.862 2.0242 1.349l.0905-.123.0905-.123c-.6598-.4852-1.3229-.9728-2.0598-1.3716zm2.042 1.3603.0897.1236c.3717-.2696.7438-.5378 1.1238-.7904l-.0846-.1271-.0845-.1272c-.3857.2564-.7625.5279-1.1341.7975zm1.1289-.794.0846.1273c2.0306-1.35 4.4527-2.0195 6.9103-2.079l-.0037-.1527-.0037-.1527c-2.5069.0608-4.9868.7437-7.072 2.13zm6.9912-2.1044.0038.1526c.1036-.0025.2125-.0081.3215-.0138l-.0079-.1525-.0079-.1525c-.1099.0057-.2145.011-.3132.0135zm.0313 1.8818-.0012-.1527c-.2872.0023-.6268-.0164-.9373.0237l.0195.1515.0196.1514c.2863-.037.5849-.0186.9006-.0212zm-.919.0225-.0133-.1522c-1.0321.0908-2.2111.3198-3.3094.7271-1.0969.4069-2.1239.9957-2.84 1.8127l.1149.1007.1148.1006c.6707-.7652 1.6467-1.3308 2.7165-1.7276 1.0685-.3963 2.2201-.6204 3.2299-.7092zm-6.0478 2.4883-.1153-.1002a5 5 0 0 0-.1765.2148l.1209.0934.1209.0933a4.5 4.5 0 0 1 .1653-.2012zm-.1709.208-.1527-.0001-.003 12.4248.1528.0001h.1527l.0029-12.4248zm-.0029 12.4248.0881.1247c.2301-.1628.4504-.3251.679-.4796l-.0855-.1266-.0855-.1265c-.2319.1567-.461.3254-.6843.4833zm.6816-.4815.0767.1321c1.872-1.0879 4.2219-1.2784 6.4027-1.4309l-.0106-.1524-.0107-.1523c-2.1678.1516-4.5913.342-6.5348 1.4715zm6.4688-1.4512h.1527c.0001-4.3981.0603-8.8116-.0098-13.2133l-.1527.0024-.1527.0024c.07 4.3987.0098 8.8047.0097 13.2085zM7.8611 7.915l-.1527-.0038c-.0468 1.841-.0362 3.6884-.0264 5.53l.1528-.0008.1527-.0008c-.0099-1.8425-.0204-3.6852.0263-5.5207zm-.0263 5.5254-.1528.0009c.0041.7554.0077 1.5109.0078 2.2648h.1528l.1527-.0001a432 432 0 0 0-.0078-2.2664zm.0078 2.2657h-.1528c.0002.5528-.0073 1.1095-.0146 1.6689l.1527.002.1527.0019c.0073-.5588.0148-1.1176.0147-1.6729zm-.0147 1.6709h-.1527v.0048h.3055v-.0048zm0 .0048-.1527-.0019c-.016 1.2366-.0322 2.4857.0314 3.7149l.1526-.0079.1525-.0079c-.063-1.2176-.0471-2.4568-.031-3.6952zm.0313 3.7051-.0128.1522c2.5186.211 4.9992.4521 7.0529 1.9184l.0888-.1243.0887-.1243c-2.1322-1.5224-4.6983-1.7642-7.2049-1.9742zm7.1289 1.9463.1527-.0005q-.0186-6.1836.0703-12.3664l-.1527-.0022-.1527-.0022a711 711 0 0 0-.0703 12.3718zm.0703-12.3691.1094-.1066c-1.6765-1.722-4.2908-2.7332-6.699-2.799l-.0042.1526-.0041.1527c2.3399.064 4.8747 1.0492 6.4885 2.7068zm-6.5938-2.753.0032-.1527a11.7 11.7 0 0 0-.6115.004l.0048.1526.0049.1527a11.4 11.4 0 0 1 .5955-.0039z"/>
</svg>
